<svg width="17" height="16" viewBox="0 0 17 16" fill="none" xmlns="http://www.w3.org/2000/svg">
<path d="M1.3335 11.3733H8.00016" stroke="white" stroke-width="1.5" stroke-miterlimit="10" stroke-linecap="round" stroke-linejoin="round"/>
<path d="M2.81348 9H6.52018C7.70685 9 8.00016 9.29333 8.00016 10.4667V13.2067C8.00016 14.38 7.70685 14.6733 6.52018 14.6733H2.81348C1.62681 14.6733 1.3335 14.38 1.3335 13.2067V10.4667C1.3335 9.29333 1.62681 9 2.81348 9Z" stroke="white" stroke-width="1.5" stroke-linecap="round" stroke-linejoin="round"/>
<path d="M14.6667 10C14.6667 12.58 12.58 14.6667 10 14.6667L10.7 13.5" stroke="white" stroke-width="1.5" stroke-linecap="round" stroke-linejoin="round"/>
<path d="M1.3335 6.00004C1.3335 3.42004 3.42016 1.33337 6.00016 1.33337L5.30017 2.50004" stroke="white" stroke-width="1.5" stroke-linecap="round" stroke-linejoin="round"/>
<path d="M12.3335 7.33337C13.9904 7.33337 15.3335 5.99023 15.3335 4.33337C15.3335 2.67652 13.9904 1.33337 12.3335 1.33337C10.6766 1.33337 9.3335 2.67652 9.3335 4.33337C9.3335 5.99023 10.6766 7.33337 12.3335 7.33337Z" stroke="white" stroke-width="1.5" stroke-linecap="round" stroke-linejoin="round"/>
</svg>
