<svg width="22" height="22" viewBox="0 0 22 22" fill="none" xmlns="http://www.w3.org/2000/svg">
<path d="M9.26712 10.2207H6.83795C6.26045 10.2207 5.79297 10.6882 5.79297 11.2657V15.959H9.26712V10.2207V10.2207Z" stroke="#B4BBD7" stroke-miterlimit="10" stroke-linecap="round" stroke-linejoin="round"/>
<path d="M11.6981 6.0498H10.3048C9.72725 6.0498 9.25977 6.51732 9.25977 7.09482V15.9499H12.7339V7.09482C12.7339 6.51732 12.2756 6.0498 11.6981 6.0498Z" stroke="#B4BBD7" stroke-miterlimit="10" stroke-linecap="round" stroke-linejoin="round"/>
<path d="M15.1694 11.7791H12.7402V15.9499H16.2144V12.8241C16.2052 12.2466 15.7377 11.7791 15.1694 11.7791Z" stroke="#B4BBD7" stroke-miterlimit="10" stroke-linecap="round" stroke-linejoin="round"/>
<path d="M8.25065 20.1666H13.7507C18.334 20.1666 20.1673 18.3333 20.1673 13.7499V8.24992C20.1673 3.66659 18.334 1.83325 13.7507 1.83325H8.25065C3.66732 1.83325 1.83398 3.66659 1.83398 8.24992V13.7499C1.83398 18.3333 3.66732 20.1666 8.25065 20.1666Z" stroke="white" stroke-linecap="round" stroke-linejoin="round"/>
</svg>
