<svg width="22" height="22" viewBox="0 0 22 22" fill="none" xmlns="http://www.w3.org/2000/svg">
<path d="M16.536 12.4207C16.151 12.7965 15.931 13.3373 15.986 13.9148C16.0685 14.9048 16.976 15.629 17.966 15.629H19.7077V16.7198C19.7077 18.6173 18.1585 20.1665 16.261 20.1665H6.99352C7.27769 19.9282 7.52518 19.6348 7.71768 19.3048C8.05685 18.7548 8.24935 18.104 8.24935 17.4165C8.24935 15.3907 6.60852 13.7498 4.58268 13.7498C3.72102 13.7498 2.92352 14.0523 2.29102 14.5565V10.5507C2.29102 8.65318 3.84018 7.104 5.73768 7.104H16.261C18.1585 7.104 19.7077 8.65318 19.7077 10.5507V11.8707H17.856C17.3427 11.8707 16.8752 12.0723 16.536 12.4207Z" stroke="#B4BBD7" stroke-linecap="round" stroke-linejoin="round"/>
<path d="M2.29102 11.3757V7.18658C2.29102 6.09575 2.96018 5.12404 3.97768 4.73904L11.256 1.98904C12.3927 1.55821 13.6119 2.40157 13.6119 3.62073V7.10405" stroke="#B4BBD7" stroke-linecap="round" stroke-linejoin="round"/>
<path d="M20.6792 12.8061V14.6944C20.6792 15.1986 20.2759 15.6111 19.7626 15.6294H17.9659C16.9759 15.6294 16.0684 14.9052 15.9859 13.9152C15.9309 13.3377 16.1509 12.7969 16.5359 12.4211C16.8751 12.0727 17.3426 11.8711 17.8559 11.8711H19.7626C20.2759 11.8894 20.6792 12.3019 20.6792 12.8061Z" stroke="#B4BBD7" stroke-linecap="round" stroke-linejoin="round"/>
<path d="M6.41699 11H12.8337" stroke="white" stroke-linecap="round" stroke-linejoin="round"/>
<path d="M8.24935 17.4167C8.24935 18.1042 8.05685 18.755 7.71768 19.305C7.52518 19.635 7.27769 19.9283 6.99352 20.1667C6.35185 20.7442 5.50852 21.0833 4.58268 21.0833C3.24435 21.0833 2.08018 20.3683 1.44768 19.305C1.10852 18.755 0.916016 18.1042 0.916016 17.4167C0.916016 16.2617 1.44768 15.2258 2.29102 14.5567C2.92352 14.0525 3.72102 13.75 4.58268 13.75C6.60852 13.75 8.24935 15.3908 8.24935 17.4167Z" stroke="white" stroke-miterlimit="10" stroke-linecap="round" stroke-linejoin="round"/>
<path d="M3.1543 17.4161L4.06179 18.3236L6.01429 16.5178" stroke="white" stroke-linecap="round" stroke-linejoin="round"/>
</svg>
