<svg width="16" height="20" viewBox="0 0 16 20" fill="none" xmlns="http://www.w3.org/2000/svg">
<path d="M6.58081 16.6091C7.36345 17.7373 8.44447 18.6343 9.71065 19.1944C9.89856 19.2785 10.111 19.2898 10.3068 19.2261C11.5231 18.8336 12.6188 18.1365 13.4898 17.2012C14.3608 16.2659 14.9782 15.1234 15.2833 13.8822C15.5884 12.6411 15.5711 11.3425 15.233 10.11C14.8949 8.87744 14.2473 7.75181 13.3516 6.84006L6.58081 16.6091ZM6.58081 16.6091C6.57613 16.3739 6.58706 16.1383 6.61371 15.9036L6.1169 15.8472L5.67515 16.0814C5.80092 16.3187 5.93808 16.5485 6.0859 16.7704C6.10493 17.1843 6.1682 17.5959 6.27519 17.9981C6.3021 18.0823 6.3161 18.1701 6.31669 18.2585L6.58081 16.6091ZM7.27284 0.941641L7.02627 1.37661C6.97713 1.34876 6.92172 1.33384 6.86524 1.33327C6.80876 1.33269 6.75306 1.34648 6.70337 1.37333C6.65367 1.40018 6.61161 1.43921 6.58114 1.48677C6.55084 1.53404 6.53298 1.5882 6.5292 1.64422C6.47838 2.50132 6.25419 3.33922 5.87021 4.10719C5.48596 4.87569 4.9497 5.55817 4.29391 6.1133L4.28646 6.1196L4.2864 6.11952L4.09434 6.27577L4.07675 6.29009L4.05793 6.30275C3.47072 6.69786 2.95095 7.18494 2.51857 7.74528L2.51437 7.75072L2.51434 7.75069C1.83956 8.60077 1.37212 9.59638 1.14909 10.6586C0.926066 11.7207 0.953581 12.8203 1.22946 13.87C1.50534 14.9197 2.02199 15.8906 2.73844 16.7059C3.45489 17.5212 4.35144 18.1583 5.35698 18.5668L5.35794 18.5672C5.40851 18.5878 5.46338 18.5957 5.51771 18.5902C5.57204 18.5846 5.62418 18.5658 5.66951 18.5353C5.71484 18.5048 5.75198 18.4637 5.77765 18.4155C5.80308 18.3677 5.81648 18.3144 5.81669 18.2603C5.81628 18.223 5.81029 18.1859 5.79892 18.1503L5.79517 18.1386L5.792 18.1267C5.58953 17.3656 5.53122 16.5733 5.62009 15.7908L5.8023 14.1865L6.55865 15.613C7.29464 17.0012 8.47604 18.1015 9.91292 18.7371L9.91484 18.738C9.98966 18.7715 10.0742 18.776 10.1522 18.7506L10.1532 18.7503C11.2884 18.3839 12.311 17.7333 13.1239 16.8604C13.9368 15.9875 14.513 14.9212 14.7978 13.7629C15.0825 12.6045 15.0664 11.3926 14.7508 10.2423C14.436 9.09445 13.8335 8.04599 13.0004 7.19605C12.9717 7.16895 12.94 7.14514 12.9059 7.12506L13.1599 6.69438M7.27284 0.941641C8.38783 1.57688 9.31458 2.49624 9.95872 3.60611C10.6029 4.71598 10.9414 5.97673 10.9398 7.25997C10.9398 7.41528 10.9347 7.57048 10.9246 7.72533C10.7942 7.87203 10.6536 8.00998 10.5038 8.13811L10.8288 8.51812L11.3211 8.60549C11.361 8.38045 11.3909 8.15387 11.4107 7.9264C11.6367 7.653 11.8324 7.35483 11.9938 7.037C12.0451 6.93529 12.1167 6.8452 12.2042 6.77228C12.2918 6.69936 12.3933 6.64517 12.5026 6.61306C12.6119 6.58095 12.7266 6.5716 12.8397 6.58558C12.9528 6.59957 13.0617 6.6366 13.1599 6.69438M7.27284 0.941641L7.02533 1.37608C8.06355 1.96758 8.92648 2.82364 9.52627 3.85709C10.1261 4.89054 10.4413 6.06448 10.4398 7.25937V7.25973C10.4396 7.65234 10.4051 8.04418 10.3364 8.43074L10.0924 9.80566L11.1537 8.89812C11.6858 8.44313 12.1228 7.88757 12.4396 7.2633L12.4401 7.26226C12.4607 7.2216 12.4893 7.18558 12.5243 7.15643C12.5593 7.12728 12.5999 7.10562 12.6436 7.09278C12.6873 7.07995 12.7331 7.07621 12.7783 7.0818C12.8235 7.08739 12.8671 7.10219 12.9063 7.12529L13.1599 6.69438M7.27284 0.941641C7.15002 0.872013 7.01151 0.834732 6.87033 0.833295C6.72915 0.831858 6.58992 0.866313 6.4657 0.933425C6.34148 1.00054 6.23635 1.09811 6.16016 1.21698C6.08398 1.33586 6.03925 1.47214 6.03017 1.61303L13.1599 6.69438M10.0434 17.6395L10.2774 17.9992C11.1667 17.6564 11.9672 17.1174 12.6192 16.4222C13.2712 15.7271 13.7579 14.8938 14.0431 13.9844C14.3283 13.075 14.4046 12.1129 14.2663 11.17C14.128 10.227 13.7787 9.32737 13.2444 8.53816L12.8574 7.96661L12.4349 8.51241C11.6788 9.48923 10.6417 10.211 9.46303 10.5807C9.40021 10.6001 9.33303 10.6006 9.26994 10.582C9.20675 10.5633 9.1505 10.5264 9.10828 10.4758C9.06607 10.4252 9.03977 10.3633 9.03272 10.2978C9.0257 10.2326 9.03807 10.1667 9.06826 10.1085L10.0434 17.6395ZM4.74166 6.60686L4.72927 6.61661L4.69542 6.64396C4.67001 6.66464 4.63751 6.69132 4.6059 6.71733L4.51929 6.78874L4.49096 6.81214L4.48302 6.81871L4.48091 6.82045L4.48037 6.8209L4.48022 6.82102L4.48019 6.82105L4.48017 6.82106L4.48016 6.82106L4.47797 6.8229C4.47414 6.8261 4.47012 6.82907 4.46593 6.83177L4.4659 6.83173L4.46002 6.83564C3.91823 7.19625 3.43914 7.64313 3.04176 8.15854C2.52177 8.81195 2.13639 9.56192 1.9079 10.3651C1.67902 11.1697 1.61211 12.0117 1.71104 12.8423C1.80996 13.6729 2.07276 14.4756 2.4842 15.2039C2.89563 15.9322 3.44753 16.5716 4.1079 17.0851L4.94108 17.7329L4.91464 16.6778C4.88243 15.392 5.20687 14.1224 5.852 13.0097L5.85281 13.0083C5.88201 12.9575 5.92408 12.9154 5.97476 12.8861C6.02545 12.8568 6.08297 12.8413 6.14151 12.8414L6.14243 12.8414C6.16327 12.8413 6.18405 12.8433 6.20449 12.8474L6.20549 12.8476C6.27373 12.8609 6.33611 12.8952 6.3839 12.9457C6.43133 12.9958 6.46204 13.0594 6.47181 13.1277C6.47188 13.1282 6.47195 13.1287 6.47202 13.1293L6.96731 13.0608C7.00244 13.3311 7.05243 13.5992 7.11705 13.864L4.74166 6.60686Z" fill="white" stroke="#171717"/>
</svg>
