<svg width="23" height="23" viewBox="0 0 23 23" fill="none" xmlns="http://www.w3.org/2000/svg">
<path d="M21.0833 7.9255V4.05383C21.0833 2.53008 20.47 1.91675 18.9463 1.91675H15.0746C13.5508 1.91675 12.9375 2.53008 12.9375 4.05383V7.9255C12.9375 9.44925 13.5508 10.0626 15.0746 10.0626H18.9463C20.47 10.0626 21.0833 9.44925 21.0833 7.9255Z" stroke="#636363" stroke-width="1.5" stroke-linecap="round" stroke-linejoin="round"/>
<path d="M10.0623 8.16508V3.81425C10.0623 2.463 9.449 1.91675 7.92525 1.91675H4.05359C2.52984 1.91675 1.9165 2.463 1.9165 3.81425V8.1555C1.9165 9.51633 2.52984 10.053 4.05359 10.053H7.92525C9.449 10.0626 10.0623 9.51633 10.0623 8.16508Z" stroke="#636363" stroke-width="1.5" stroke-linecap="round" stroke-linejoin="round"/>
<path d="M10.0623 18.9463V15.0746C10.0623 13.5508 9.449 12.9375 7.92525 12.9375H4.05359C2.52984 12.9375 1.9165 13.5508 1.9165 15.0746V18.9463C1.9165 20.47 2.52984 21.0833 4.05359 21.0833H7.92525C9.449 21.0833 10.0623 20.47 10.0623 18.9463Z" stroke="#636363" stroke-width="1.5" stroke-linecap="round" stroke-linejoin="round"/>
<path d="M14.375 14.8542H20.125" stroke="#636363" stroke-width="1.5" stroke-linecap="round"/>
<path d="M14.375 18.6875H20.125" stroke="#636363" stroke-width="1.5" stroke-linecap="round"/>
</svg>
