<svg width="24" height="24" viewBox="0 0 24 24" fill="none" xmlns="http://www.w3.org/2000/svg">
<path d="M23 15.97C23 19.84 19.87 22.97 16 22.97L17.05 21.22" stroke="#171717" stroke-width="1.5" stroke-linecap="round" stroke-linejoin="round"/>
<path d="M1 7.96997C1 4.09997 4.13 0.969971 8 0.969971L6.95 2.71997" stroke="#171717" stroke-width="1.5" stroke-linecap="round" stroke-linejoin="round"/>
<path d="M14.8498 15.33C14.8498 18.74 12.0898 21.4999 8.67977 21.4999C5.26977 21.4999 2.50977 18.74 2.50977 15.33C2.50977 11.92 5.26977 9.15991 8.67977 9.15991C8.83977 9.15991 8.98977 9.16993 9.15977 9.17993C12.1898 9.40993 14.6098 11.8299 14.8398 14.8599C14.8398 15.0099 14.8498 15.16 14.8498 15.33Z" stroke="#171717" stroke-width="1.5" stroke-miterlimit="10" stroke-linecap="round" stroke-linejoin="round"/>
<path d="M21.4997 8.66998C21.4997 12.08 18.7397 14.84 15.3297 14.84H14.8397C14.6097 11.81 12.1897 9.38997 9.15967 9.15997V8.66998C9.15967 5.25998 11.9197 2.5 15.3297 2.5C18.7397 2.5 21.4997 5.25998 21.4997 8.66998Z" stroke="#171717" stroke-width="1.5" stroke-miterlimit="10" stroke-linecap="round" stroke-linejoin="round"/>
</svg>
