<svg width="24" height="25" viewBox="0 0 24 25" fill="none" xmlns="http://www.w3.org/2000/svg">
<path d="M11.7217 0C5.24731 0 0 5.24731 0 11.7217H23.4433C23.4433 5.24731 18.196 0 11.7217 0Z" fill="#175CD3"/>
<path d="M22.1599 13.0779C22.1599 18.835 17.4764 23.5163 11.7215 23.5163C5.96648 23.5163 1.283 18.8329 1.283 13.0779H0.00195312C0.00195312 19.5414 5.26007 24.7995 11.7236 24.7995C18.1872 24.7995 23.4453 19.5414 23.4453 13.0779H22.1642H22.1599Z" fill="#175CD3"/>
<path d="M11.7217 21.8637C16.5672 21.8637 20.5097 17.9212 20.5097 13.0757H19.2286C19.2286 17.2148 15.8608 20.5805 11.7238 20.5805C7.58691 20.5805 4.21904 17.2126 4.21904 13.0757H2.93799C2.93799 17.9212 6.8805 21.8637 11.726 21.8637H11.7217Z" fill="#175CD3"/>
</svg>
