<?xml version="1.0" standalone="no"?>
<!DOCTYPE svg PUBLIC "-//W3C//DTD SVG 20010904//EN"
 "http://www.w3.org/TR/2001/REC-SVG-20010904/DTD/svg10.dtd">
<svg version="1.0" xmlns="http://www.w3.org/2000/svg"
 width="20.000000pt" height="20.000000pt" viewBox="0 0 20.000000 20.000000"
 preserveAspectRatio="xMidYMid meet">

<g transform="translate(0.000000,20.000000) scale(0.100000,-0.100000)"
fill="#000000" stroke="none">
<path d="M26 158 c-20 -29 -20 -87 0 -116 13 -18 25 -22 73 -22 72 0 91 17 91
82 0 61 -20 78 -93 78 -46 0 -58 -4 -71 -22z m132 0 c18 -18 15 -26 -10 -30
-35 -5 -37 -45 -4 -54 14 -3 26 -10 26 -15 0 -25 -84 -38 -121 -19 -15 8 -19
21 -19 58 0 27 5 53 12 60 16 16 100 16 116 0z m12 -53 c0 -8 -9 -15 -20 -15
-20 0 -26 11 -13 23 12 13 33 7 33 -8z"/>
<path d="M63 133 c9 -2 25 -2 35 0 9 3 1 5 -18 5 -19 0 -27 -2 -17 -5z"/>
</g>
</svg>
